<svg width="720" height="520" viewBox="0 0 720 520" fill="none" xmlns="http://www.w3.org/2000/svg">
  <rect width="720" height="520" rx="34" fill="#111225"/>
  <rect x="38" y="38" width="644" height="444" rx="28" fill="url(#panel)" stroke="white" stroke-opacity=".1"/>
  <rect x="78" y="82" width="564" height="68" rx="18" fill="#1B1730"/>
  <circle cx="112" cy="116" r="11" fill="#FF6F91"/>
  <circle cx="145" cy="116" r="11" fill="#65F2B5"/>
  <circle cx="178" cy="116" r="11" fill="#44D7FF"/>
  <rect x="94" y="196" width="228" height="220" rx="22" fill="#161528" stroke="#9D6CFF" stroke-opacity=".35"/>
  <rect x="362" y="196" width="264" height="44" rx="12" fill="#211A39"/>
  <rect x="362" y="266" width="210" height="24" rx="12" fill="#352857"/>
  <rect x="362" y="312" width="244" height="24" rx="12" fill="#352857"/>
  <rect x="362" y="358" width="180" height="24" rx="12" fill="#352857"/>
  <path d="M132 354h50l33-84 38 126 34-86h19" stroke="#65F2B5" stroke-width="10" stroke-linecap="round" stroke-linejoin="round"/>
  <path d="M380 220h146" stroke="#44D7FF" stroke-width="10" stroke-linecap="round"/>
  <circle cx="590" cy="393" r="54" fill="#9D6CFF" opacity=".22"/>
  <circle cx="576" cy="378" r="19" fill="#9D6CFF"/>
  <path d="M552 421c8-22 22-33 43-33s35 11 43 33" stroke="#E15CFF" stroke-width="12" stroke-linecap="round"/>
  <defs>
    <linearGradient id="panel" x1="63" y1="47" x2="676" y2="499" gradientUnits="userSpaceOnUse">
      <stop stop-color="#28203F"/>
      <stop offset=".5" stop-color="#121326"/>
      <stop offset="1" stop-color="#172A3B"/>
    </linearGradient>
  </defs>
</svg>
